<svg fill="#FF9900" role="img" viewBox="0 0 24 24" xmlns="http://www.w3.org/2000/svg"><title>Amazon Web Services</title><path d="M11.128 9.868c-.188-.605-.329-1.187-.422-1.746-.094-.558-.141-1.061-.141-1.508 0-.447.033-.812.099-1.094.065-.282.169-.499.31-.651.141-.152.32-.235.536-.249.216-.013.463.051.74.191.277.14.557.338.839.595l.619-.839c-.282-.266-.59-.485-.924-.658-.334-.173-.681-.268-1.04-.285-.359-.017-.687.051-.985.205-.297.153-.547.372-.748.657-.201.285-.355.622-.461 1.012-.106.39-.16.819-.16 1.287 0 .468.043.968.127 1.5.084.533.196 1.069.337 1.606l.141.565 1.133-.587zm4.651-1.242c-.197-.365-.43-.667-.701-.906-.271-.239-.587-.398-.948-.477-.361-.079-.756-.073-1.183.018l-.404.095.314 1.128.432-.108c.216-.054.426-.056.629-.006.203.05.386.149.548.297.162.148.302.338.42.571.117.233.212.508.285.824.072.317.118.661.136 1.033.018.372.008.763-.031 1.173l.01.01c.263.047.51.108.74.183.229.074.437.163.623.266l.544-1.029c-.266-.14-.572-.259-.918-.358a4.14 4.14 0 0 0-.468-.108c.014-.285.011-.556-.009-.813a4.45 4.45 0 0 0-.119-.79zm-9.437 3.037c-.178-.457-.369-.902-.573-1.336l-1.104.557c.203.404.384.833.544 1.287.16.454.295.926.404 1.416.109.49.179.987.212 1.49.033.503.022 1.009-.032 1.517l1.142.13c.058-.55.066-1.096.023-1.639-.043-.543-.126-1.078-.249-1.606-.123-.528-.279-1.036-.467-1.524v-.292zM24 12.5c0 6.351-5.149 11.5-11.5 11.5S1 18.851 1 12.5 6.149 1 12.5 1 24 6.149 24 12.5zM12.91 18.649c.136-.381.203-.82.203-1.314 0-.494-.068-.933-.203-1.314-.136-.381-.346-.698-.63-.952-.284-.254-.637-.437-1.058-.547-.421-.111-.902-.166-1.443-.166-.541 0-1.022.056-1.443.166-.421.111-.774.293-1.058.547-.284.254-.494.571-.63.952-.136.381-.203.82-.203 1.314 0 .494.068.933.203 1.314.136.381.346.698.63.952.284.254.637.437 1.058.547.421.111.902.166 1.443.166.541 0 1.022-.056 1.443-.166.421-.111.774-.293 1.058-.547.284-.254.494-.571.63-.952zm-1.233-.23c-.05.148-.127.271-.231.368-.104.097-.233.166-.388.208-.155.042-.331.064-.529.064-.198 0-.374-.022-.529-.064-.155-.042-.284-.111-.388-.208-.104-.097-.181-.22-.231-.368-.05-.148-.075-.318-.075-.511 0-.193.025-.363.075-.511.05-.148.127-.271.231-.368.104-.097.233-.166.388-.208.155-.042.331-.064.529-.064.198 0 .374.022.529.064.155.042.284.111.388.208.104.097.181.22.231.368.05.148.075.318.075.511 0 .193-.025.363-.075.511z"/></svg>
